<svg width="273" height="75" viewBox="0 0 273 75" fill="none" xmlns="http://www.w3.org/2000/svg">
<path d="M23.6178 71.2656L23.6178 71.2657L23.6259 71.2687C28.3528 73.0244 33.4456 73.9 38.9 73.9C45.0909 73.9 50.6601 72.8233 55.5985 70.6589C60.6033 68.4947 64.8017 65.3467 68.1867 61.217L68.4855 60.8524L68.1391 60.5326L57.7391 50.9326L57.358 50.5807L57.0204 50.9746C54.6608 53.7274 52.0497 55.7805 49.1889 57.1467C46.3265 58.4471 43.1991 59.1 39.8 59.1C36.5885 59.1 33.651 58.5758 30.9818 57.5342C28.3104 56.4917 26.0028 54.9957 24.0536 53.0464C22.1032 51.0961 20.5731 48.7868 19.4639 46.1133C18.4239 43.4465 17.9 40.4775 17.9 37.2C17.9 33.9225 18.424 30.9535 19.4639 28.2867C20.5731 25.6131 22.1032 23.3039 24.0536 21.3536C26.0028 19.4043 28.3104 17.9083 30.9818 16.8658C33.651 15.8242 36.5885 15.3 39.8 15.3C43.1972 15.3 46.323 15.9855 49.1846 17.3512L49.1846 17.3513L49.1931 17.3552C52.0541 18.6556 54.665 20.6429 57.0243 23.3299L57.3625 23.7151L57.7391 23.3674L68.1391 13.7674L68.4855 13.4476L68.1867 13.083C64.8015 8.95313 60.6026 5.83804 55.597 3.74041C50.6596 1.57677 45.1245 0.5 39 0.5C33.4788 0.5 28.3839 1.40898 23.7207 3.23323C19.0621 4.98907 14.9727 7.52335 11.4571 10.8361L11.4571 10.8361L11.4536 10.8394C8.00547 14.1523 5.30138 18.0401 3.34224 22.4989L3.3422 22.4988L3.33971 22.5047C1.44428 26.9725 0.5 31.8731 0.5 37.2C0.5 42.5269 1.44428 47.4275 3.33971 51.8953L3.33967 51.8953L3.34224 51.9011C5.30138 56.3599 8.00547 60.2477 11.4536 63.5606C14.9031 66.8748 18.9597 69.4429 23.6178 71.2656ZM97.8033 20.0595C96.0155 21.0196 94.4273 22.1815 93.0398 23.5441V18.4V17.9H92.5398H77.6398H77.1398V18.4V72.2V72.7H77.6398H93.2398H93.7398V72.2V45.6C93.7398 42.3183 94.2651 39.6704 95.2843 37.6292C96.3751 35.5781 97.8379 34.0915 99.6696 33.1441L99.6751 33.1412C101.596 32.1165 103.748 31.6 106.14 31.6C109.502 31.6 112.019 32.5982 113.769 34.5351L113.769 34.5352L113.775 34.5416C115.585 36.4769 116.54 39.5281 116.54 43.8V72.2V72.7H117.04H132.64H133.14V72.2V41.4C133.14 35.8798 132.165 31.3222 130.178 27.7586C128.199 24.1434 125.461 21.4686 121.965 19.7536C118.553 17.9803 114.674 17.1 110.34 17.1C105.668 17.1 101.485 18.0824 97.8033 20.0595ZM147.38 72.2V72.7H147.88H163.88H164.38V72.2V31.1095L198.394 72.5174L198.544 72.7H198.78H212.08H212.58V72.2V2.2V1.7H212.08H196.08H195.58V2.2V43.2688L161.667 1.88309L161.517 1.7H161.28H147.88H147.38V2.2V72.2ZM232.212 71.8828L232.221 71.8851C236.529 72.9621 241.003 73.5 245.642 73.5C251.084 73.5 255.717 72.7613 259.525 71.2654C263.386 69.7749 266.367 67.729 268.435 65.1098L268.438 65.1049C270.507 62.4159 271.542 59.3417 271.542 55.9C271.542 52.7748 270.932 50.2058 269.665 48.2337C268.424 46.2342 266.798 44.6758 264.793 43.5672C262.882 42.4086 260.739 41.5258 258.367 40.9158C256.014 40.3109 253.661 39.8736 251.307 39.6042C249.051 39.2723 246.964 38.9077 245.043 38.5104C243.143 38.1171 241.631 37.5984 240.49 36.9658C239.516 36.3907 239.042 35.5571 239.042 34.4C239.042 33.1594 239.701 32.1029 241.194 31.2319C242.676 30.3673 245.099 29.9 248.542 29.9C250.968 29.9 253.464 30.195 256.03 30.7872L256.037 30.7888L256.044 30.7903C258.65 31.3115 261.231 32.3227 263.788 33.8307L264.262 34.11L264.495 33.6121L269.695 22.5121L269.886 22.105L269.501 21.8722C266.907 20.3023 263.684 19.1189 259.845 18.3107C256.013 17.504 252.245 17.1 248.542 17.1C243.297 17.1 238.763 17.8729 234.956 19.4359C231.159 20.9283 228.212 23.0096 226.146 25.6951L226.141 25.7016C224.14 28.3923 223.142 31.4982 223.142 35C223.142 38.1241 223.719 40.7197 224.911 42.7529L224.911 42.7529L224.917 42.7637C226.16 44.7649 227.785 46.3563 229.789 47.5313C231.766 48.6899 233.943 49.5735 236.318 50.1842L236.318 50.1844L236.331 50.1874C238.676 50.7236 240.989 51.1594 243.269 51.4947L243.271 51.495C245.601 51.8278 247.729 52.1604 249.657 52.4927C251.558 52.8204 253.026 53.306 254.089 53.931L254.103 53.9396L254.119 53.9472C254.655 54.2155 255.029 54.5437 255.272 54.9204C255.513 55.2954 255.642 55.7486 255.642 56.3C255.642 57.623 255.001 58.6709 253.596 59.4646L253.588 59.4695C252.246 60.2626 249.832 60.7 246.242 60.7C243.025 60.7 239.739 60.2408 236.38 59.3194C233.084 58.3299 230.227 57.0804 227.806 55.5754L227.327 55.2772L227.089 55.7894L221.889 66.9894L221.709 67.3758L222.062 67.6143C224.591 69.3226 227.981 70.741 232.212 71.8828Z" fill="black" stroke="white"/>
</svg>
